<?xml version="1.0" encoding="UTF-8"?>
<svg width="24px" height="24px" viewBox="0 0 24 24" version="1.1" xmlns="http://www.w3.org/2000/svg" xmlns:xlink="http://www.w3.org/1999/xlink">
    <title>UI Icons /SVG /logo-youtube</title>
    <g id="UI-Icons-/logo-youtube" stroke="none" stroke-width="1" fill="none" fill-rule="evenodd">
        <path d="M23.75,7.65 C23.75,7.65 23.5,6 22.8,5.25 C21.9,4.3 20.85,4.3 20.4,4.25 C17.05,4 12,4 12,4 L12,4 C12,4 6.95,4 3.6,4.25 C3.15,4.3 2.1,4.3 1.2,5.25 C0.5,6 0.25,7.65 0.25,7.65 C0.25,7.65 0,9.6 0,11.55 L0,13.35 C0,15.3 0.25,17.25 0.25,17.25 C0.25,17.25 0.5,18.9 1.2,19.65 C2.1,20.6 3.3,20.6 3.85,20.7 C5.75,20.9 12,20.95 12,20.95 C12,20.95 17.05,20.95 20.4,20.7 C20.85,20.65 21.9,20.65 22.8,19.7 C23.5,18.95 23.75,17.3 23.75,17.3 C23.75,17.3 24,15.35 24,13.4 L24,11.6 C24,9.6 23.75,7.65 23.75,7.65 Z M9.5,15.55 L9.5,8.8 L16,12.2 L9.5,15.55 Z" id="Shape" fill="#95A1AC"></path>
    </g>
</svg>